<svg xmlns="http://www.w3.org/2000/svg" width="1024" height="1024" viewBox="0 0 1024 1024">
  <defs>
    <linearGradient id="bg" x1="0%" y1="0%" x2="100%" y2="100%">
      <stop offset="0%" style="stop-color:#1a1a2e"/>
      <stop offset="100%" style="stop-color:#16213e"/>
    </linearGradient>
  </defs>
  <rect width="1024" height="1024" rx="200" fill="url(#bg)"/>
  <rect x="250" y="720" width="40" height="30" fill="#3b82f6" rx="4"/>
<rect x="320" y="710" width="40" height="40" fill="#3b82f6" rx="4"/>
<rect x="390" y="725" width="40" height="25" fill="#3b82f6" rx="4"/>
<rect x="460" y="715" width="40" height="35" fill="#3b82f6" rx="4"/>
<rect x="530" y="720" width="40" height="30" fill="#3b82f6" rx="4"/>
<rect x="600" y="730" width="40" height="20" fill="#3b82f6" rx="4"/>
<rect x="670" y="718" width="40" height="32" fill="#3b82f6" rx="4"/>
<line x1="700" y1="700" x2="700" y2="400" stroke="#10b981" stroke-width="14" stroke-linecap="round"/>
  <polygon points="700,400 720,434.6410161513775 680,434.6410161513775" fill="#10b981"/>
<path d="M200,600 Q400,580 500,560 Q600,570 800,450" fill="none" stroke="#ef4444" stroke-width="10" stroke-linecap="round" stroke-linejoin="round"/>
<circle cx="500" cy="750" r="30" fill="none" stroke="#ffd700" stroke-width="6"/>
<text x="512" y="900" fill="#aaa" font-size="60" font-family="Arial,sans-serif" font-weight="bold" text-anchor="middle">Q01</text>
</svg>